# xmcd CD database file
#
# Track frame offsets:
#	150
#	27072
#	75047
#	99572
#	129237
#	160910
#	199320
#	216540
#
# Disc length: 3363 seconds
#
# Revision: 0
# Processed by: cddbd v1.5.1PL0 Copyright (c) Steve Scherf et al.
# Submitted via: CDex 1.51
#
DISCID=5f0d2108
DTITLE=Club Toko - Tac Tic
DYEAR=1900
DGENRE=Jazz
TTITLE0=777
TTITLE1=The Man From Africa
TTITLE2=Tac Tic
TTITLE3=Blues For Diz
TTITLE4=Prelude To Tornado
TTITLE5=F-T-S
TTITLE6=It's There, Too
TTITLE7=KI-SH-U
EXTD=
EXTT0=
EXTT1=
EXTT2=
EXTT3=
EXTT4=
EXTT5=
EXTT6=
EXTT7=
PLAYORDER=
